Coordinates
version=1
nRows=16
nColumns=40
inDegrees=yes

Units are S.I. units (second, meters, Newtons, ...)
If the header above contains a line with 'inDegrees', this indicates whether rotational values are in degrees (yes) or radians (no).

endheader
time	pelvis_tilt	pelvis_list	pelvis_rotation	pelvis_tx	pelvis_ty	pelvis_tz	hip_flexion_r	hip_adduction_r	hip_rotation_r	knee_angle_r	knee_angle_r_beta	ankle_angle_r	subtalar_angle_r	mtp_angle_r	hip_flexion_l	hip_adduction_l	hip_rotation_l	knee_angle_l	knee_angle_l_beta	ankle_angle_l	subtalar_angle_l	mtp_angle_l	lumbar_extension	lumbar_bending	lumbar_rotation	arm_flex_r	arm_add_r	arm_rot_r	elbow_flex_r	pro_sup_r	wrist_flex_r	wrist_dev_r	arm_flex_l	arm_add_l	arm_rot_l	elbow_flex_l	pro_sup_l	wrist_flex_l	wrist_dev_l
      2.42000000	    -20.42940468	     -1.76536925	     -2.80937999	      0.14108636	      0.50781832	     -1.19106894	     98.63623539	    -42.93317546	     11.11241555	    108.05674735	      1.88594602	     28.36436522	     11.49477020	      0.00000000	    106.09706860	    -48.56245972	     18.56622496	    108.01636340	      1.88524119	     27.25331411	     23.09205311	      0.00000000	    -16.89060011	      2.64746333	      0.73485494	     44.99992394	    -14.99999999	     44.99992394	     75.00017585	     45.00000026	      0.00000000	      0.00000000	     44.99992394	    -14.99999999	     44.99992394	     75.00017585	     45.00000026	      0.00000000	      0.00000000
      2.42500000	    -20.48420586	     -1.63274183	     -2.77975209	      0.14060384	      0.51304130	     -1.19092088	     98.00018367	    -42.80987232	     10.52179072	    107.30905884	      1.87289639	     27.75665726	     10.60492640	      0.00000000	    104.98796786	    -48.54529503	     17.36082039	    107.24764803	      1.87182457	     26.79479350	     22.23891723	      0.00000000	    -16.93384637	      2.52418617	      0.81029136	     44.99992394	    -14.99999999	     44.99992394	     75.00017585	     45.00000026	      0.00000000	      0.00000000	     44.99992394	    -14.99999999	     44.99992394	     75.00017585	     45.00000026	      0.00000000	      0.00000000
      2.43000000	    -20.93201983	     -1.62448150	     -2.79021401	      0.14021660	      0.51664083	     -1.19076756	     97.75828489	    -42.66383217	      9.94400990	    106.68637570	      1.86202852	     27.60590624	     10.64103409	      0.00000000	    104.69932859	    -48.50364025	     16.69828617	    106.60647390	      1.86063397	     26.64450612	     22.26718723	      0.00000000	    -16.32210977	      2.51938291	      0.82451832	     44.99992394	    -14.99999999	     44.99992394	     75.00017585	     45.00000026	      0.00000000	      0.00000000	     44.99992394	    -14.99999999	     44.99992394	     75.00017585	     45.00000026	      0.00000000	      0.00000000
      2.43500000	    -21.09161433	     -1.54083037	     -2.79218105	      0.13983755	      0.52147636	     -1.19058768	     97.18956340	    -42.53738026	      9.32370337	    105.93251718	      1.84887121	     27.15627200	     10.13955024	      0.00000000	    103.82792701	    -48.50229113	     15.67598658	    105.83110048	      1.84710115	     26.26981352	     21.76383265	      0.00000000	    -16.16732127	      2.41628618	      0.87753727	     44.99992394	    -14.99999999	     44.99992394	     75.00017585	     45.00000026	      0.00000000	      0.00000000	     44.99992394	    -14.99999999	     44.99992394	     75.00017585	     45.00000026	      0.00000000	      0.00000000
      2.44000000	    -21.53672783	     -1.54080263	     -2.80644725	      0.13957022	      0.52510545	     -1.19044838	     96.93410135	    -42.41009198	      8.71846018	    105.30028652	      1.83783670	     27.00555150	     10.16547736	      0.00000000	    103.52853888	    -48.46406107	     15.01865604	    105.18305575	      1.83579064	     26.11359001	     21.78080858	      0.00000000	    -15.51320746	      2.43054519	      0.88409002	     44.99992394	    -14.99999999	     44.99992394	     75.00017585	     45.00000026	      0.00000000	      0.00000000	     44.99992394	    -14.99999999	     44.99992394	     75.00017585	     45.00000026	      0.00000000	      0.00000000
      2.44500000	    -21.59920860	     -1.46103237	     -2.79760165	      0.13928474	      0.53034567	     -1.19029025	     96.20930574	    -42.28795900	      8.05988072	    104.49825327	      1.82383858	     26.50625570	      9.56191724	      0.00000000	    102.48541475	    -48.44381566	     13.95331112	    104.37168312	      1.82162952	     25.70935323	     21.19883200	      0.00000000	    -15.48918010	      2.34244972	      0.92613702	     44.99992395	    -14.99999999	     44.99992395	     75.00017585	     45.00000026	      0.00000000	      0.00000000	     44.99992395	    -14.99999999	     44.99992395	     75.00017585	     45.00000026	      0.00000000	      0.00000000
      2.45000000	    -22.03079579	     -1.45598787	     -2.81561748	      0.13901294	      0.53409510	     -1.19012715	     95.91379303	    -42.13705879	      7.47015135	    103.81341282	      1.81188586	     26.35284949	      9.59486995	      0.00000000	    102.15038705	    -48.39421449	     13.29924909	    103.68168237	      1.80958673	     25.55014476	     21.22827632	      0.00000000	    -14.85073371	      2.34901457	      0.93567534	     44.99992395	    -14.99999999	     44.99992395	     75.00017585	     45.00000026	      0.00000000	      0.00000000	     44.99992395	    -14.99999999	     44.99992395	     75.00017585	     45.00000026	      0.00000000	      0.00000000
      2.45500000	    -21.99303033	     -1.37448258	     -2.80084697	      0.13899304	      0.53962984	     -1.18998044	     95.04642979	    -42.06157593	      6.79075576	    102.98793687	      1.79747859	     25.94045771	      9.08065594	      0.00000000	    100.93233615	    -48.41197392	     12.17853715	    102.85085905	      1.79508613	     25.25601967	     20.78578251	      0.00000000	    -14.91070587	      2.24859547	      0.98108332	     44.99992395	    -14.99999999	     44.99992395	     75.00017585	     45.00000026	      0.00000000	      0.00000000	     44.99992395	    -14.99999999	     44.99992395	     75.00017585	     45.00000026	      0.00000000	      0.00000000
      2.46000000	    -22.45048105	     -1.38117447	     -2.82555187	      0.13881414	      0.54330762	     -1.18977836	     94.77817533	    -41.91921459	      6.17442868	    102.31016475	      1.78564923	     25.78256524	      9.15038775	      0.00000000	    100.65564569	    -48.38462994	     11.54413294	    102.15496681	      1.78294052	     25.06554007	     20.83087304	      0.00000000	    -14.21767948	      2.25691514	      0.99220464	     44.99992395	    -14.99999999	     44.99992395	     75.00017585	     45.00000026	      0.00000000	      0.00000000	     44.99992395	    -14.99999999	     44.99992395	     75.00017585	     45.00000026	      0.00000000	      0.00000000
      2.46500000	    -22.45719765	     -1.32987941	     -2.84310905	      0.13878788	      0.54871183	     -1.18957258	     93.92713948	    -41.79934542	      5.45291000	    101.46184860	      1.77084332	     25.35237827	      8.67434969	      0.00000000	     99.56740546	    -48.39475736	     10.54898679	    101.31459216	      1.76827321	     24.69277473	     20.40877019	      0.00000000	    -14.20261656	      2.18048473	      1.04257856	     44.99992395	    -14.99999999	     44.99992395	     75.00017585	     45.00000026	      0.00000000	      0.00000000	     44.99992395	    -14.99999999	     44.99992395	     75.00017585	     45.00000026	      0.00000000	      0.00000000
      2.47000000	    -22.88687224	     -1.33725357	     -2.86027712	      0.13863730	      0.55249302	     -1.18939838	     93.59824919	    -41.62581665	      4.87189794	    100.74309708	      1.75829874	     25.18568309	      8.71945595	      0.00000000	     99.23488185	    -48.33595257	      9.91773928	    100.59415984	      1.75569930	     24.49701680	     20.44675450	      0.00000000	    -13.51497082	      2.20742959	      1.04830729	     44.99992395	    -14.99999999	     44.99992395	     75.00017585	     45.00000026	      0.00000000	      0.00000000	     44.99992395	    -14.99999999	     44.99992395	     75.00017585	     45.00000026	      0.00000000	      0.00000000
      2.47500000	    -22.86984183	     -1.30930621	     -2.88884578	      0.13874425	      0.55789840	     -1.18919167	     92.71170976	    -41.51327290	      4.11666883	     99.90151531	      1.74361037	     24.75838724	      8.25630877	      0.00000000	     98.15802521	    -48.37979465	      8.93482940	     99.75321944	      1.74102212	     24.11336096	     20.05858597	      0.00000000	    -13.49346470	      2.16466985	      1.09889287	     44.99992395	    -14.99999999	     44.99992395	     75.00017585	     45.00000026	      0.00000000	      0.00000000	     44.99992395	    -14.99999999	     44.99992395	     75.00017585	     45.00000026	      0.00000000	      0.00000000
      2.48000000	    -22.99364901	     -1.27426549	     -2.89686464	      0.13890494	      0.56276682	     -1.18901260	     92.00014737	    -41.40384769	      3.45530665	     99.09064796	      1.72945806	     24.51665424	      8.11918815	      0.00000000	     97.27157997	    -48.39190315	      8.02511237	     98.94232219	      1.72686929	     23.90028089	     19.97077896	      0.00000000	    -13.23684780	      2.14878486	      1.13475159	     44.99992395	    -14.99999999	     44.99992395	     75.00017585	     45.00000026	      0.00000000	      0.00000000	     44.99992395	    -14.99999999	     44.99992395	     75.00017585	     45.00000026	      0.00000000	      0.00000000
      2.48500000	    -23.42677538	     -1.28642873	     -2.91098969	      0.13888753	      0.56647051	     -1.18880348	     91.69243531	    -41.25890079	      2.85698264	     98.37591068	      1.71698355	     24.37035540	      8.17288917	      0.00000000	     96.95991718	    -48.32947151	      7.43477386	     98.22253843	      1.71430670	     23.71904261	     20.01025396	      0.00000000	    -12.47817891	      2.15083319	      1.15801423	     44.99992395	    -14.99999999	     44.99992395	     75.00017585	     45.00000026	      0.00000000	      0.00000000	     44.99992395	    -14.99999999	     44.99992395	     75.00017585	     45.00000026	      0.00000000	      0.00000000
      2.49000000	    -23.30356959	     -1.24846214	     -2.92587908	      0.13915012	      0.57229878	     -1.18859274	     90.62886430	    -41.13664414	      2.10591524	     97.44989830	      1.70082158	     23.95393958	      7.70215048	      0.00000000	     95.67098646	    -48.33877278	      6.39304790	     97.30533781	      1.69829852	     23.37077111	     19.64853856	      0.00000000	    -12.59880666	      2.09588005	      1.22466291	     44.99992395	    -14.99999999	     44.99992395	     75.00017585	     45.00000026	      0.00000000	      0.00000000	     44.99992395	    -14.99999999	     44.99992395	     75.00017585	     45.00000026	      0.00000000	      0.00000000
      2.49500000	    -23.32097771	     -1.19411864	     -2.94825484	      0.13947385	      0.57744252	     -1.18829262	     89.80975743	    -41.01978442	      1.45811665	     96.62061160	      1.68634780	     23.72256906	      7.58385738	      0.00000000	     94.59834189	    -48.35308078	      5.43168290	     96.44858576	      1.68334538	     23.15303160	     19.57081587	      0.00000000	    -12.43921853	      1.98890086	      1.31493054	     44.99992395	    -14.99999999	     44.99992395	     75.00017585	     45.00000026	      0.00000000	      0.00000000	     44.99992395	    -14.99999999	     44.99992395	     75.00017585	     45.00000026	      0.00000000	      0.00000000
